<?xml version="1.0" encoding="UTF-8"?><svg xmlns="http://www.w3.org/2000/svg" id="canvas_15" width="560" height="376" style="width: 560px; height: 376px;" version="1.1" viewBox="0 0 560 376"><path stroke="none" opacity="1" fill-opacity="1" d="M 0,0 l 560,0 l 0,376 l-560 0 z" stroke-opacity="1" transform="matrix(1,0,0,1,0,0)" width="560" height="376" stroke-width="1" fill="#fff"></path><defs id="defs_1"></defs><g stroke="none" fill="none" opacity="1" fill-opacity="1" stroke-opacity="1" transform="matrix(1,0,0,1,0,0)"><g stroke="none" fill="none" opacity="1" fill-opacity="1" stroke-opacity="1" transform="matrix(1,0,0,1,0,0)"></g><g stroke="none" fill="none" opacity="1" fill-opacity="1" stroke-opacity="1" transform="matrix(1,0,0,1,0,0)"></g><g stroke="none" fill="none" opacity="1" fill-opacity="1" stroke-opacity="1" transform="matrix(1,0,0,1,0,0)"><text paint-order="stroke" style="stroke-linecap:butt; stroke-linejoin:miter;" alignment-baseline="auto" text-anchor="left" opacity="1" fill-opacity="1" stroke-opacity="1" transform="matrix(1,0,0,1,0,0)" x="24" y="42" stroke-width="1" font-size="18" font-family="PingFang SC" font-style="normal" font-weight="normal" font-variant="normal" fill="black" font="normal normal normal 18px PingFang SC">Eficiencia computacional</text></g><g stroke="none" fill="none" opacity="1" fill-opacity="1" stroke-opacity="1" transform="matrix(1,0,0,1,0,0)"><text paint-order="stroke" style="stroke-linecap:butt; stroke-linejoin:miter;" alignment-baseline="auto" text-anchor="left" opacity="1" fill-opacity="1" stroke-opacity="1" transform="matrix(1,0,0,1,0,0)" x="24" y="64.5" stroke-width="1" font-size="12" font-family="PingFang SC" font-style="normal" font-weight="normal" font-variant="normal" fill="grey" font="normal normal normal 12px PingFang SC">Intel Pentium(R) CPU 4405U@2.19GHz 4cpus, 8GB ram</text></g><g stroke="none" fill="none" opacity="1" fill-opacity="1" stroke-opacity="1" transform="matrix(1,0,0,1,0,0)"><path stroke="none" d="M 0,77 l 560,0 l 0,299 l-560 0 z" opacity="1" fill-opacity="0" stroke-opacity="1" transform="matrix(1,0,0,1,0,0)" width="560" height="299" stroke-width="1" fill="#ffffff"></path><g stroke="none" fill="none" opacity="1" fill-opacity="1" stroke-opacity="1" transform="matrix(1,0,0,1,0,0)"></g><g stroke="none" fill="none" opacity="1" fill-opacity="1" stroke-opacity="1" transform="matrix(1,0,0,1,0,0)"><g stroke="none" fill="none" opacity="1" fill-opacity="1" stroke-opacity="1" transform="matrix(1,0,0,1,0,0)"><path fill="none" opacity="1" fill-opacity="1" stroke-opacity="0.45" transform="matrix(1,0,0,1,0,0)" d="M 70.4375 304.5L 535.5 304.5" stroke-width="1" stroke="#000"></path><g stroke="none" fill="none" opacity="1" fill-opacity="1" stroke-opacity="1" transform="matrix(1,0,0,1,0,0)"><text paint-order="stroke" style="stroke-linecap:butt; stroke-linejoin:miter;" alignment-baseline="auto" text-anchor="middle" opacity="1" fill-opacity="0.45" stroke-opacity="1" transform="matrix(1,0,0,1,0,0)" x="147.94791666666666" y="325.5" stroke-width="1" font-size="12" font-family="&quot;-apple-system&quot;, BlinkMacSystemFont, &quot;Segoe UI&quot;, Roboto,&quot;Helvetica Neue&quot;, Helvetica, &quot;PingFang SC&quot;, &quot;Hiragino Sans GB&quot;, &quot;Microsoft YaHei&quot;,SimSun, &quot;sans-serif&quot;" font-style="normal" font-weight="normal" font-variant="normal" fill="#000" font="normal normal normal 12px &quot;-apple-system&quot;, BlinkMacSystemFont, &quot;Segoe UI&quot;, Roboto,&quot;Helvetica Neue&quot;, Helvetica, &quot;PingFang SC&quot;, &quot;Hiragino Sans GB&quot;, &quot;Microsoft YaHei&quot;,SimSun, &quot;sans-serif&quot;">GrayScaleVideo</text><text paint-order="stroke" style="stroke-linecap:butt; stroke-linejoin:miter;" alignment-baseline="auto" text-anchor="middle" opacity="1" fill-opacity="0.45" stroke-opacity="1" transform="matrix(1,0,0,1,0,0)" x="302.96875" y="325.5" stroke-width="1" font-size="12" font-family="&quot;-apple-system&quot;, BlinkMacSystemFont, &quot;Segoe UI&quot;, Roboto,&quot;Helvetica Neue&quot;, Helvetica, &quot;PingFang SC&quot;, &quot;Hiragino Sans GB&quot;, &quot;Microsoft YaHei&quot;,SimSun, &quot;sans-serif&quot;" font-style="normal" font-weight="normal" font-variant="normal" fill="#000" font="normal normal normal 12px &quot;-apple-system&quot;, BlinkMacSystemFont, &quot;Segoe UI&quot;, Roboto,&quot;Helvetica Neue&quot;, Helvetica, &quot;PingFang SC&quot;, &quot;Hiragino Sans GB&quot;, &quot;Microsoft YaHei&quot;,SimSun, &quot;sans-serif&quot;">ConvolutionsVideo</text><text paint-order="stroke" style="stroke-linecap:butt; stroke-linejoin:miter;" alignment-baseline="auto" text-anchor="middle" opacity="1" fill-opacity="0.45" stroke-opacity="1" transform="matrix(1,0,0,1,0,0)" x="457.98958333333337" y="325.5" stroke-width="1" font-size="12" font-family="&quot;-apple-system&quot;, BlinkMacSystemFont, &quot;Segoe UI&quot;, Roboto,&quot;Helvetica Neue&quot;, Helvetica, &quot;PingFang SC&quot;, &quot;Hiragino Sans GB&quot;, &quot;Microsoft YaHei&quot;,SimSun, &quot;sans-serif&quot;" font-style="normal" font-weight="normal" font-variant="normal" fill="#000" font="normal normal normal 12px &quot;-apple-system&quot;, BlinkMacSystemFont, &quot;Segoe UI&quot;, Roboto,&quot;Helvetica Neue&quot;, Helvetica, &quot;PingFang SC&quot;, &quot;Hiragino Sans GB&quot;, &quot;Microsoft YaHei&quot;,SimSun, &quot;sans-serif&quot;">VideoToAscii</text><g stroke="none" fill="none" opacity="1" fill-opacity="1" stroke-opacity="1" transform="matrix(1,0,0,1,0,0)"></g></g><text paint-order="stroke" style="stroke-linecap:butt; stroke-linejoin:miter;" alignment-baseline="auto" text-anchor="middle" opacity="1" fill-opacity="0.65" stroke-opacity="1" transform="matrix(1,0,0,1,0,0)" x="302.96875" y="350.5" stroke-width="1" font-size="12" font-family="&quot;-apple-system&quot;, BlinkMacSystemFont, &quot;Segoe UI&quot;, Roboto,&quot;Helvetica Neue&quot;, Helvetica, &quot;PingFang SC&quot;, &quot;Hiragino Sans GB&quot;, &quot;Microsoft YaHei&quot;,SimSun, &quot;sans-serif&quot;" font-style="normal" font-weight="normal" font-variant="normal" fill="#000">X</text></g><g stroke="none" fill="none" opacity="1" fill-opacity="1" stroke-opacity="1" transform="matrix(1,0,0,1,0,0)"><g stroke="none" fill="none" opacity="1" fill-opacity="1" stroke-opacity="1" transform="matrix(1,0,0,1,0,0)"><path fill="none" opacity="1" fill-opacity="1" stroke-opacity="0.15" transform="matrix(1,0,0,1,0,0)" d="M 70.4375 304.5L 147.94791666666666 304.5L 302.96875 304.5L 457.98958333333337 304.5L 535.5 304.5" stroke-width="1" stroke="#000" stroke-dasharray="0,0"></path><path fill="none" opacity="1" fill-opacity="1" stroke-opacity="0.15" transform="matrix(1,0,0,1,0,0)" d="M 70.4375 273.6666666666667L 147.94791666666666 273.6666666666667L 302.96875 273.6666666666667L 457.98958333333337 273.6666666666667L 535.5 273.6666666666667" stroke-width="1" stroke="#000" stroke-dasharray="0,0"></path><path fill="none" opacity="1" fill-opacity="1" stroke-opacity="0.15" transform="matrix(1,0,0,1,0,0)" d="M 70.4375 242.83333333333334L 147.94791666666666 242.83333333333334L 302.96875 242.83333333333334L 457.98958333333337 242.83333333333334L 535.5 242.83333333333334" stroke-width="1" stroke="#000" stroke-dasharray="0,0"></path><path fill="none" opacity="1" fill-opacity="1" stroke-opacity="0.15" transform="matrix(1,0,0,1,0,0)" d="M 70.4375 212L 147.94791666666666 212L 302.96875 212L 457.98958333333337 212L 535.5 212" stroke-width="1" stroke="#000" stroke-dasharray="0,0"></path><path fill="none" opacity="1" fill-opacity="1" stroke-opacity="0.15" transform="matrix(1,0,0,1,0,0)" d="M 70.4375 181.16666666666669L 147.94791666666666 181.16666666666669L 302.96875 181.16666666666669L 457.98958333333337 181.16666666666669L 535.5 181.16666666666669" stroke-width="1" stroke="#000" stroke-dasharray="0,0"></path><path fill="none" opacity="1" fill-opacity="1" stroke-opacity="0.15" transform="matrix(1,0,0,1,0,0)" d="M 70.4375 150.33333333333331L 147.94791666666666 150.33333333333331L 302.96875 150.33333333333331L 457.98958333333337 150.33333333333331L 535.5 150.33333333333331" stroke-width="1" stroke="#000" stroke-dasharray="0,0"></path><path fill="none" opacity="1" fill-opacity="1" stroke-opacity="0.15" transform="matrix(1,0,0,1,0,0)" d="M 70.4375 119.5L 147.94791666666666 119.5L 302.96875 119.5L 457.98958333333337 119.5L 535.5 119.5" stroke-width="1" stroke="#000" stroke-dasharray="0,0"></path></g><g stroke="none" fill="none" opacity="1" fill-opacity="1" stroke-opacity="1" transform="matrix(1,0,0,1,0,0)"><text paint-order="stroke" style="stroke-linecap:butt; stroke-linejoin:miter;" alignment-baseline="auto" text-anchor="end" opacity="1" fill-opacity="0.45" stroke-opacity="1" transform="matrix(1,0,0,1,0,0)" x="62.4375" y="309.5" stroke-width="1" font-size="12" font-family="&quot;-apple-system&quot;, BlinkMacSystemFont, &quot;Segoe UI&quot;, Roboto,&quot;Helvetica Neue&quot;, Helvetica, &quot;PingFang SC&quot;, &quot;Hiragino Sans GB&quot;, &quot;Microsoft YaHei&quot;,SimSun, &quot;sans-serif&quot;" font-style="normal" font-weight="normal" font-variant="normal" fill="#000" font="normal normal normal 12px &quot;-apple-system&quot;, BlinkMacSystemFont, &quot;Segoe UI&quot;, Roboto,&quot;Helvetica Neue&quot;, Helvetica, &quot;PingFang SC&quot;, &quot;Hiragino Sans GB&quot;, &quot;Microsoft YaHei&quot;,SimSun, &quot;sans-serif&quot;">0</text><text paint-order="stroke" style="stroke-linecap:butt; stroke-linejoin:miter;" alignment-baseline="auto" text-anchor="end" opacity="1" fill-opacity="0.45" stroke-opacity="1" transform="matrix(1,0,0,1,0,0)" x="62.4375" y="278.6666666666667" stroke-width="1" font-size="12" font-family="&quot;-apple-system&quot;, BlinkMacSystemFont, &quot;Segoe UI&quot;, Roboto,&quot;Helvetica Neue&quot;, Helvetica, &quot;PingFang SC&quot;, &quot;Hiragino Sans GB&quot;, &quot;Microsoft YaHei&quot;,SimSun, &quot;sans-serif&quot;" font-style="normal" font-weight="normal" font-variant="normal" fill="#000" font="normal normal normal 12px &quot;-apple-system&quot;, BlinkMacSystemFont, &quot;Segoe UI&quot;, Roboto,&quot;Helvetica Neue&quot;, Helvetica, &quot;PingFang SC&quot;, &quot;Hiragino Sans GB&quot;, &quot;Microsoft YaHei&quot;,SimSun, &quot;sans-serif&quot;">10</text><text paint-order="stroke" style="stroke-linecap:butt; stroke-linejoin:miter;" alignment-baseline="auto" text-anchor="end" opacity="1" fill-opacity="0.45" stroke-opacity="1" transform="matrix(1,0,0,1,0,0)" x="62.4375" y="247.83333333333334" stroke-width="1" font-size="12" font-family="&quot;-apple-system&quot;, BlinkMacSystemFont, &quot;Segoe UI&quot;, Roboto,&quot;Helvetica Neue&quot;, Helvetica, &quot;PingFang SC&quot;, &quot;Hiragino Sans GB&quot;, &quot;Microsoft YaHei&quot;,SimSun, &quot;sans-serif&quot;" font-style="normal" font-weight="normal" font-variant="normal" fill="#000" font="normal normal normal 12px &quot;-apple-system&quot;, BlinkMacSystemFont, &quot;Segoe UI&quot;, Roboto,&quot;Helvetica Neue&quot;, Helvetica, &quot;PingFang SC&quot;, &quot;Hiragino Sans GB&quot;, &quot;Microsoft YaHei&quot;,SimSun, &quot;sans-serif&quot;">20</text><text paint-order="stroke" style="stroke-linecap:butt; stroke-linejoin:miter;" alignment-baseline="auto" text-anchor="end" opacity="1" fill-opacity="0.45" stroke-opacity="1" transform="matrix(1,0,0,1,0,0)" x="62.4375" y="217" stroke-width="1" font-size="12" font-family="&quot;-apple-system&quot;, BlinkMacSystemFont, &quot;Segoe UI&quot;, Roboto,&quot;Helvetica Neue&quot;, Helvetica, &quot;PingFang SC&quot;, &quot;Hiragino Sans GB&quot;, &quot;Microsoft YaHei&quot;,SimSun, &quot;sans-serif&quot;" font-style="normal" font-weight="normal" font-variant="normal" fill="#000" font="normal normal normal 12px &quot;-apple-system&quot;, BlinkMacSystemFont, &quot;Segoe UI&quot;, Roboto,&quot;Helvetica Neue&quot;, Helvetica, &quot;PingFang SC&quot;, &quot;Hiragino Sans GB&quot;, &quot;Microsoft YaHei&quot;,SimSun, &quot;sans-serif&quot;">30</text><text paint-order="stroke" style="stroke-linecap:butt; stroke-linejoin:miter;" alignment-baseline="auto" text-anchor="end" opacity="1" fill-opacity="0.45" stroke-opacity="1" transform="matrix(1,0,0,1,0,0)" x="62.4375" y="186.16666666666669" stroke-width="1" font-size="12" font-family="&quot;-apple-system&quot;, BlinkMacSystemFont, &quot;Segoe UI&quot;, Roboto,&quot;Helvetica Neue&quot;, Helvetica, &quot;PingFang SC&quot;, &quot;Hiragino Sans GB&quot;, &quot;Microsoft YaHei&quot;,SimSun, &quot;sans-serif&quot;" font-style="normal" font-weight="normal" font-variant="normal" fill="#000" font="normal normal normal 12px &quot;-apple-system&quot;, BlinkMacSystemFont, &quot;Segoe UI&quot;, Roboto,&quot;Helvetica Neue&quot;, Helvetica, &quot;PingFang SC&quot;, &quot;Hiragino Sans GB&quot;, &quot;Microsoft YaHei&quot;,SimSun, &quot;sans-serif&quot;">40</text><text paint-order="stroke" style="stroke-linecap:butt; stroke-linejoin:miter;" alignment-baseline="auto" text-anchor="end" opacity="1" fill-opacity="0.45" stroke-opacity="1" transform="matrix(1,0,0,1,0,0)" x="62.4375" y="155.33333333333331" stroke-width="1" font-size="12" font-family="&quot;-apple-system&quot;, BlinkMacSystemFont, &quot;Segoe UI&quot;, Roboto,&quot;Helvetica Neue&quot;, Helvetica, &quot;PingFang SC&quot;, &quot;Hiragino Sans GB&quot;, &quot;Microsoft YaHei&quot;,SimSun, &quot;sans-serif&quot;" font-style="normal" font-weight="normal" font-variant="normal" fill="#000" font="normal normal normal 12px &quot;-apple-system&quot;, BlinkMacSystemFont, &quot;Segoe UI&quot;, Roboto,&quot;Helvetica Neue&quot;, Helvetica, &quot;PingFang SC&quot;, &quot;Hiragino Sans GB&quot;, &quot;Microsoft YaHei&quot;,SimSun, &quot;sans-serif&quot;">50</text><text paint-order="stroke" style="stroke-linecap:butt; stroke-linejoin:miter;" alignment-baseline="auto" text-anchor="end" opacity="1" fill-opacity="0.45" stroke-opacity="1" transform="matrix(1,0,0,1,0,0)" x="62.4375" y="124.5" stroke-width="1" font-size="12" font-family="&quot;-apple-system&quot;, BlinkMacSystemFont, &quot;Segoe UI&quot;, Roboto,&quot;Helvetica Neue&quot;, Helvetica, &quot;PingFang SC&quot;, &quot;Hiragino Sans GB&quot;, &quot;Microsoft YaHei&quot;,SimSun, &quot;sans-serif&quot;" font-style="normal" font-weight="normal" font-variant="normal" fill="#000" font="normal normal normal 12px &quot;-apple-system&quot;, BlinkMacSystemFont, &quot;Segoe UI&quot;, Roboto,&quot;Helvetica Neue&quot;, Helvetica, &quot;PingFang SC&quot;, &quot;Hiragino Sans GB&quot;, &quot;Microsoft YaHei&quot;,SimSun, &quot;sans-serif&quot;">60</text><g stroke="none" fill="none" opacity="1" fill-opacity="1" stroke-opacity="1" transform="matrix(1,0,0,1,0,0)"></g></g><text paint-order="stroke" style="stroke-linecap:butt; stroke-linejoin:miter;" alignment-baseline="auto" text-anchor="middle" opacity="1" fill-opacity="0.65" stroke-opacity="1" transform="matrix(-1.8369701987210297e-16,-1,1,-1.8369701987210297e-16,-175.5,248.50000000000003)" x="36.5" y="208" stroke-width="1" font-size="12" font-family="&quot;-apple-system&quot;, BlinkMacSystemFont, &quot;Segoe UI&quot;, Roboto,&quot;Helvetica Neue&quot;, Helvetica, &quot;PingFang SC&quot;, &quot;Hiragino Sans GB&quot;, &quot;Microsoft YaHei&quot;,SimSun, &quot;sans-serif&quot;" font-style="normal" font-weight="normal" font-variant="normal" fill="#000">y</text></g></g></g><g stroke="none" fill="none" opacity="1" fill-opacity="1" stroke-opacity="1" transform="matrix(1,0,0,1,0,0)"><path stroke="none" d="M 70.4375,119.5 l 465.0625,0 l 0,185 l-465.0625 0 z" opacity="1" fill-opacity="0" stroke-opacity="1" transform="matrix(1,0,0,1,0,0)" width="465.0625" height="185" stroke-width="1" fill="#ffffff"></path><g stroke="none" fill="none" opacity="1" fill-opacity="1" stroke-opacity="1" transform="matrix(1,0,0,1,0,0)"><g stroke="none" fill="none" opacity="1" fill-opacity="1" stroke-opacity="1" transform="matrix(1,0,0,1,0,0)"><path stroke="none" opacity="1" fill-opacity="0.85" stroke-opacity="1" transform="matrix(1,0,0,1,0,0)" d="M 99.11635416666665 304.5L 99.11635416666665 129.42888833333333L 145.62260416666663 129.42888833333333L 145.62260416666663 304.5L 99.11635416666665 304.5z" stroke-width="0" fill="#5B8FF9"></path><path stroke="none" opacity="1" fill-opacity="0.85" stroke-opacity="1" transform="matrix(1,0,0,1,0,0)" d="M 254.13718750000004 304.5L 254.13718750000004 141.04490575L 300.6434375 141.04490575L 300.6434375 304.5L 254.13718750000004 304.5z" stroke-width="0" fill="#5B8FF9"></path><path stroke="none" opacity="1" fill-opacity="0.85" stroke-opacity="1" transform="matrix(1,0,0,1,0,0)" d="M 434.7364583333333 304.5L 434.7364583333333 149.46661758333332L 481.2427083333334 149.46661758333332L 481.2427083333334 304.5L 434.7364583333333 304.5z" stroke-width="0" fill="#5B8FF9"></path><path stroke="none" opacity="1" fill-opacity="0.85" stroke-opacity="1" transform="matrix(1,0,0,1,0,0)" d="M 150.27322916666665 304.5L 150.27322916666665 142.8441325L 196.77947916666665 142.8441325L 196.77947916666665 304.5L 150.27322916666665 304.5z" stroke-width="0" fill="#5AD8A6"></path><path stroke="none" opacity="1" fill-opacity="0.85" stroke-opacity="1" transform="matrix(1,0,0,1,0,0)" d="M 305.2940625 304.5L 305.2940625 130.42872083333333L 351.8003125 130.42872083333333L 351.8003125 304.5L 305.2940625 304.5z" stroke-width="0" fill="#5AD8A6"></path></g></g></g><g stroke="none" fill="none" opacity="1" fill-opacity="1" stroke-opacity="1" transform="matrix(1,0,0,1,0,0)"><g stroke="none" fill="none" opacity="1" fill-opacity="1" stroke-opacity="1" transform="matrix(1,0,0,1,0,0)"></g><g stroke="none" fill="none" opacity="1" fill-opacity="1" stroke-opacity="1" transform="matrix(1,0,0,1,0,0)"></g><g stroke="none" fill="none" opacity="1" fill-opacity="1" stroke-opacity="1" transform="matrix(1,0,0,1,24,77)"><g stroke="none" fill="none" opacity="1" fill-opacity="1" stroke-opacity="1" transform="matrix(1,0,0,1,0,0)"><g stroke="none" fill="none" opacity="1" fill-opacity="1" stroke-opacity="1" transform="matrix(1,0,0,1,0,0)"><path stroke="none" d="M 0 11L 8 11L 8 19L 0 19Z" opacity="1" fill-opacity="0.85" stroke-opacity="1" transform="matrix(1,0,0,1,0,0)" stroke-width="0" fill="#5B8FF9"></path><text paint-order="stroke" style="stroke-linecap:butt; stroke-linejoin:miter;" alignment-baseline="auto" text-anchor="left" opacity="1" fill-opacity="1" stroke-opacity="1" transform="matrix(1,0,0,1,0,0)" x="16" y="21" stroke-width="1" font-size="12" font-family="&quot;-apple-system&quot;, BlinkMacSystemFont, &quot;Segoe UI&quot;, Roboto,&quot;Helvetica Neue&quot;, Helvetica, &quot;PingFang SC&quot;, &quot;Hiragino Sans GB&quot;, &quot;Microsoft YaHei&quot;,SimSun, &quot;sans-serif&quot;" font-style="normal" font-weight="normal" font-variant="normal" fill="#8C8C8C" font="normal normal normal 12px &quot;-apple-system&quot;, BlinkMacSystemFont, &quot;Segoe UI&quot;, Roboto,&quot;Helvetica Neue&quot;, Helvetica, &quot;PingFang SC&quot;, &quot;Hiragino Sans GB&quot;, &quot;Microsoft YaHei&quot;,SimSun, &quot;sans-serif&quot;">normal</text><path stroke="none" d="M 0,8.5 l 53.841796875,0 l 0,13 l-53.841796875 0 z" opacity="1" fill-opacity="0" stroke-opacity="1" transform="matrix(1,0,0,1,0,0)" width="53.841796875" height="13" stroke-width="1" fill="#fff"></path></g><g stroke="none" fill="none" opacity="1" fill-opacity="1" stroke-opacity="1" transform="matrix(1,0,0,1,0,0)"><path stroke="none" d="M 64.841796875 11L 72.841796875 11L 72.841796875 19L 64.841796875 19Z" opacity="1" fill-opacity="0.85" stroke-opacity="1" transform="matrix(1,0,0,1,0,0)" stroke-width="0" fill="#5AD8A6"></path><text paint-order="stroke" style="stroke-linecap:butt; stroke-linejoin:miter;" alignment-baseline="auto" text-anchor="left" opacity="1" fill-opacity="1" stroke-opacity="1" transform="matrix(1,0,0,1,0,0)" x="80.841796875" y="21" stroke-width="1" font-size="12" font-family="&quot;-apple-system&quot;, BlinkMacSystemFont, &quot;Segoe UI&quot;, Roboto,&quot;Helvetica Neue&quot;, Helvetica, &quot;PingFang SC&quot;, &quot;Hiragino Sans GB&quot;, &quot;Microsoft YaHei&quot;,SimSun, &quot;sans-serif&quot;" font-style="normal" font-weight="normal" font-variant="normal" fill="#8C8C8C" font="normal normal normal 12px &quot;-apple-system&quot;, BlinkMacSystemFont, &quot;Segoe UI&quot;, Roboto,&quot;Helvetica Neue&quot;, Helvetica, &quot;PingFang SC&quot;, &quot;Hiragino Sans GB&quot;, &quot;Microsoft YaHei&quot;,SimSun, &quot;sans-serif&quot;">shader</text><path stroke="none" d="M 64.841796875,8.5 l 52.001953125,0 l 0,13 l-52.001953125 0 z" opacity="1" fill-opacity="0" stroke-opacity="1" transform="matrix(1,0,0,1,0,0)" width="52.001953125" height="13" stroke-width="1" fill="#fff"></path></g></g></g></g></g></svg>